<svg width="64" height="64" viewBox="0 0 64 64" fill="none" xmlns="http://www.w3.org/2000/svg">
<g clip-path="url(#clip0_6_1243)">
<path d="M62.1719 42.6667H1.82809C6.22189 55.0939 18.0681 64 32 64C45.9319 64 57.7782 55.0939 62.1719 42.6667Z" fill="#191977" style="fill:#191977;fill:color(display-p3 0.0980 0.0980 0.4667);fill-opacity:1;"/>
<path d="M1.82809 21.3333H62.1719C57.7782 8.9061 45.9319 0 32 0C18.0681 0 6.22179 8.9061 1.82809 21.3333Z" fill="#F0263C" style="fill:#F0263C;fill:color(display-p3 0.9412 0.1490 0.2353);fill-opacity:1;"/>
<path d="M0 32C0 35.7412 0.6482 39.3295 1.8281 42.6667H62.1719C63.3518 39.3296 64 35.7412 64 32C64 28.2588 63.3518 24.6705 62.1719 21.3333H1.8281C0.6482 24.6705 0 28.2588 0 32Z" fill="white" style="fill:white;fill-opacity:1;"/>
<path d="M34.6666 32H29.3333V37.3333H34.6666V32Z" fill="#F0263C" style="fill:#F0263C;fill:color(display-p3 0.9412 0.1490 0.2353);fill-opacity:1;"/>
<path d="M34.6666 26.6666H29.3333V31.9999H34.6666V26.6666Z" fill="white" style="fill:white;fill-opacity:1;"/>
<path d="M34.6666 21.3333H29.3333V26.6666H34.6666V21.3333Z" fill="#F0263C" style="fill:#F0263C;fill:color(display-p3 0.9412 0.1490 0.2353);fill-opacity:1;"/>
<path d="M40 26.6666H34.6667V31.9999H40V26.6666Z" fill="#F0263C" style="fill:#F0263C;fill:color(display-p3 0.9412 0.1490 0.2353);fill-opacity:1;"/>
<path d="M40 21.3333H34.6667V26.6666H40V21.3333Z" fill="white" style="fill:white;fill-opacity:1;"/>
<path d="M24 32V26.6666H18.6667V32H18.9344H24Z" fill="white" style="fill:white;fill-opacity:1;"/>
<path d="M24 21.3333H18.6667V26.6666H24V21.3333Z" fill="#F0263C" style="fill:#F0263C;fill:color(display-p3 0.9412 0.1490 0.2353);fill-opacity:1;"/>
<path d="M29.3333 26.6666H24V31.9999H29.3333V26.6666Z" fill="#F0263C" style="fill:#F0263C;fill:color(display-p3 0.9412 0.1490 0.2353);fill-opacity:1;"/>
<path d="M29.3333 21.3333H24V26.6666H29.3333V21.3333Z" fill="white" style="fill:white;fill-opacity:1;"/>
<path d="M40 32H45.0656H45.3333V26.6666H40V32Z" fill="white" style="fill:white;fill-opacity:1;"/>
<path d="M45.3333 21.3333H40V26.6666H45.3333V21.3333Z" fill="#F0263C" style="fill:#F0263C;fill:color(display-p3 0.9412 0.1490 0.2353);fill-opacity:1;"/>
<path d="M18.9344 32H18.6667V34.6667C18.6667 35.5801 18.7595 36.4716 18.9344 37.3334H24V32.0001L18.9344 32Z" fill="#F0263C" style="fill:#F0263C;fill:color(display-p3 0.9412 0.1490 0.2353);fill-opacity:1;"/>
<path d="M29.3333 37.3333H24V42.6666H29.3333V37.3333Z" fill="#F0263C" style="fill:#F0263C;fill:color(display-p3 0.9412 0.1490 0.2353);fill-opacity:1;"/>
<path d="M40 37.3333H34.6667V42.6666H40V37.3333Z" fill="#F0263C" style="fill:#F0263C;fill:color(display-p3 0.9412 0.1490 0.2353);fill-opacity:1;"/>
<path d="M40 32V37.3333H45.0656C45.2406 36.4716 45.3333 35.58 45.3333 34.6666V31.9999L40 32Z" fill="#F0263C" style="fill:#F0263C;fill:color(display-p3 0.9412 0.1490 0.2353);fill-opacity:1;"/>
<path d="M29.3333 42.6666V47.7322C30.195 47.9072 31.0866 47.9999 32 47.9999C32.9134 47.9999 33.8049 47.9071 34.6667 47.7322V42.6666H29.3333Z" fill="#F0263C" style="fill:#F0263C;fill:color(display-p3 0.9412 0.1490 0.2353);fill-opacity:1;"/>
<path d="M21.3515 42.6666C22.1063 43.6697 22.9969 44.5603 24 45.3151V42.6666H21.3515Z" fill="#F0263C" style="fill:#F0263C;fill:color(display-p3 0.9412 0.1490 0.2353);fill-opacity:1;"/>
<path d="M24 42.6666V45.3151C25.5524 46.4834 27.359 47.3314 29.3333 47.7322V42.6666H24Z" fill="white" style="fill:white;fill-opacity:1;"/>
<path d="M34.6667 47.7322C36.641 47.3314 38.4476 46.4834 40 45.3151V42.6666H34.6667V47.7322Z" fill="white" style="fill:white;fill-opacity:1;"/>
<path d="M42.6485 42.6666H40V45.3151C41.0031 44.5603 41.8937 43.6697 42.6485 42.6666Z" fill="#F0263C" style="fill:#F0263C;fill:color(display-p3 0.9412 0.1490 0.2353);fill-opacity:1;"/>
<path d="M24 13.3333L21.3333 12L18.6666 13.3333V21.3333C20.3077 20.6166 22.1194 20.0414 23.9999 19.6045L24 13.3333Z" fill="#4DAFE3" style="fill:#4DAFE3;fill:color(display-p3 0.3020 0.6863 0.8902);fill-opacity:1;"/>
<path d="M29.3333 18.7831V13.3334L26.6666 12.0001L23.9999 13.3334V19.6046C25.7411 19.2001 27.54 18.9235 29.3333 18.7831Z" fill="#191977" style="fill:#191977;fill:color(display-p3 0.0980 0.0980 0.4667);fill-opacity:1;"/>
<path d="M32 18.6666C32.8798 18.6666 33.7723 18.713 34.6667 18.783V13.3333L32 12L29.3333 13.3333V18.783C30.2277 18.713 31.1202 18.6666 32 18.6666Z" fill="#4DAFE3" style="fill:#4DAFE3;fill:color(display-p3 0.3020 0.6863 0.8902);fill-opacity:1;"/>
<path d="M42.6667 12L40 13.3333V19.6045C41.8805 20.0414 43.6922 20.6165 45.3333 21.3333V13.3333L42.6667 12Z" fill="#4DAFE3" style="fill:#4DAFE3;fill:color(display-p3 0.3020 0.6863 0.8902);fill-opacity:1;"/>
<path d="M40 19.6046V13.3334L37.3333 12.0001L34.6666 13.3334V18.7831C36.4599 18.9235 38.2588 19.2001 40 19.6046Z" fill="#191977" style="fill:#191977;fill:color(display-p3 0.0980 0.0980 0.4667);fill-opacity:1;"/>
<path d="M34.6667 18.7831C33.7723 18.7131 32.8798 18.6667 32 18.6667C31.1202 18.6667 30.2277 18.7131 29.3333 18.7831C27.54 18.9235 25.7412 19.2001 24 19.6046C22.1195 20.0415 20.3078 20.6166 18.6667 21.3334H45.3334C43.6923 20.6167 41.8806 20.0415 40.0001 19.6046C38.2589 19.2001 36.46 18.9235 34.6667 18.7831Z" fill="#F0263C" style="fill:#F0263C;fill:color(display-p3 0.9412 0.1490 0.2353);fill-opacity:1;"/>
</g>
<defs>
<clipPath id="clip0_6_1243">
<rect width="64" height="64" fill="white" style="fill:white;fill-opacity:1;"/>
</clipPath>
</defs>
</svg>
