<svg width="64" height="64" viewBox="0 0 64 64" fill="none" xmlns="http://www.w3.org/2000/svg">
<g clip-path="url(#clip0_6_608)">
<path d="M61.3795 19.3102L60 20L58.6667 21.3333L56 22.6666H53.3333L52 23.9999L50.6667 25.3332L48 26.6665V29.3332L49.3333 31.9999V33.3332H45.3333L44 31.9999H42.6667L41.3334 33.3332V34.6665L38.6667 35.9998H34.6667L33.3334 37.3331H29.3334L28.0001 38.6664H26.6668L25.3335 37.3331H22.6668L21.3335 35.9998H20.0002L18.6669 34.6665L17.3336 33.3332L16.0003 31.9999L14.667 29.3332V23.9999L16.0003 22.6666L17.3336 25.3333H18.6669L21.3336 22.6666H24.0003V23.9999H28.0003V19.9999L29.3336 18.6666L30.6669 19.9999L33.3336 21.3332L37.3336 22.6665H46.6669L48.0002 21.3332H50.6669L54.6669 19.9999L60.0002 17.3332H60.4383C55.1187 7.0406 44.385 0 32 0C14.3269 0 0 14.3269 0 32C0 49.6731 14.3269 64 32 64C49.6731 64 64 49.6731 64 32C64 27.4906 63.0626 23.2015 61.3795 19.3102Z" fill="white" style="fill:white;fill-opacity:1;"/>
<path d="M54.6666 20L50.6666 21.3333H47.9999L46.6666 22.6666H37.3333L33.3333 21.3333L30.6666 20L29.3333 18.6667L28 20V24H24V22.6667H21.3333L18.6666 25.3334H17.3333L16 22.6667L14.6667 24V29.3333L16 32L17.3333 33.3333L18.6666 34.6666L19.9999 35.9999H21.3332L22.6665 37.3332H25.3332L26.6665 38.6665H27.9998L29.3331 37.3332H33.3331L34.6664 35.9999H38.6664L41.3331 34.6666V33.3333L42.6664 32H43.9998L45.333 33.3333H49.333V32L47.9997 29.3333V26.6666L50.6665 25.3333L51.9997 24L53.333 22.6667H55.9997L58.6665 21.3334L59.9997 20.0001L61.3792 19.3103C61.0886 18.6383 60.7723 17.9806 60.4379 17.3334H59.9997L54.6666 20Z" fill="#CC9500" style="fill:#CC9500;fill:color(display-p3 0.8000 0.5843 0.0000);fill-opacity:1;"/>
<path d="M46.6666 37.3333L44 38.6667V40L42.6666 41.3333V38.6667L41.3333 40V42.671L40 44V41.3333L38.6666 42.6667L38.6366 44.03L37.3333 45.3333V42.6667L36 44V45.3898L34.6666 46.6667V44L33.3333 45.3333V48H37.3333V46.6667H40V45.3333H42.6666L44 44H42.6666V42.6667H45.3333L46.6666 41.3333H44L46.6666 40V37.3333Z" fill="#1E5B00" style="fill:#1E5B00;fill:color(display-p3 0.1176 0.3569 0.0000);fill-opacity:1;"/>
<path d="M30.6667 48L29.3333 49.3333V50.6667L30.6667 49.3333H33.3333L34.6667 50.6667V49.3333L33.3333 48H30.6667Z" fill="#1E5B00" style="fill:#1E5B00;fill:color(display-p3 0.1176 0.3569 0.0000);fill-opacity:1;"/>
<path d="M30.6667 45.3333L29.3333 44V46.6667L28 45.3898V44L26.6667 42.6667V45.3333L25.3634 44.03L25.3333 42.6667L24 41.3333V44L22.6667 42.671V40L21.3333 38.6667V41.3333L20 40V38.6667L17.3333 37.3333V40L20 41.3333H17.3333L18.6667 42.6667H21.3333V44H20L21.3333 45.3333H24V46.6667H26.6667V48H30.6667V45.3333Z" fill="#1E5B00" style="fill:#1E5B00;fill:color(display-p3 0.1176 0.3569 0.0000);fill-opacity:1;"/>
</g>
<defs>
<clipPath id="clip0_6_608">
<rect width="64" height="64" fill="white" style="fill:white;fill-opacity:1;"/>
</clipPath>
</defs>
</svg>
