<svg width="64" height="64" viewBox="0 0 64 64" fill="none" xmlns="http://www.w3.org/2000/svg">
<g clip-path="url(#clip0_6_650)">
<path d="M32 64C49.6731 64 64 49.6731 64 32C64 14.3269 49.6731 0 32 0C14.3269 0 0 14.3269 0 32C0 49.6731 14.3269 64 32 64Z" fill="#FFD400" style="fill:#FFD400;fill:color(display-p3 1.0000 0.8314 0.0000);fill-opacity:1;"/>
<path d="M22.6746 26.6684C22.6746 32.7101 26.1503 37.6944 30.6677 38.528V37.1807C28.2784 36.6447 26.2463 34.699 25.0793 32.0029C24.4198 30.5034 24.0402 28.764 24.0135 26.9113C24.0069 26.8313 24.0069 26.7513 24.0069 26.6714C24.0069 25.7517 24.0934 24.8587 24.2599 24.0056C24.374 23.4137 24.5267 22.8426 24.7116 22.2951L26.6711 21.3148L29.3355 19.9819H30.6677V18.649H29.3355L25.6309 20.2375C27.0902 17.67 29.399 16.0083 32 16.0083C34.601 16.0083 36.9098 17.6701 38.3691 20.2377L34.6642 18.649H33.332V19.9819H34.6642L37.3286 21.3148L39.2884 22.2953C39.4733 22.8427 39.626 23.4137 39.7399 24.0056C39.9064 24.8586 39.9932 25.7517 39.9932 26.6714V26.6847C39.9932 28.3108 39.7199 29.8569 39.2271 31.2298C39.1342 31.4923 39.0313 31.7469 38.9229 31.9971C38.9222 31.999 38.9216 32.001 38.9206 32.003C38.9147 32.0167 38.9079 32.0296 38.902 32.0432C38.5944 32.7464 38.2275 33.3964 37.8113 33.9848C37.7599 34.0577 37.7099 34.1327 37.6568 34.2037C37.595 34.2865 37.5298 34.3648 37.4657 34.4449C37.3983 34.5295 37.3314 34.6152 37.2618 34.6966C37.2008 34.7677 37.1376 34.835 37.0751 34.9036C36.9988 34.9876 36.9224 35.0718 36.8437 35.152C36.7814 35.2155 36.7172 35.2757 36.6536 35.3368C36.5708 35.416 36.4874 35.4947 36.4025 35.5698C36.3385 35.6261 36.2734 35.6799 36.2085 35.7337C36.12 35.807 36.0308 35.8788 35.9399 35.9476C35.874 35.9975 35.8074 36.0457 35.7402 36.0931C35.6474 36.1589 35.5534 36.2223 35.4583 36.2833C35.3899 36.327 35.3213 36.3698 35.2519 36.4111C35.1549 36.4688 35.0568 36.5233 34.9576 36.5759C34.8873 36.6133 34.817 36.6504 34.7457 36.6852C34.6446 36.7345 34.5422 36.7796 34.4392 36.8235C34.3674 36.8542 34.2958 36.8856 34.2231 36.9135C34.1176 36.9542 34.0104 36.9896 33.9031 37.0246C33.8307 37.0482 33.7587 37.0735 33.6855 37.0944C33.5737 37.1264 33.4602 37.152 33.3466 37.1777C33.3417 37.1788 33.3368 37.1802 33.332 37.1813V38.5278C37.8494 37.6943 41.3252 32.7099 41.3252 26.6682C41.3252 25.6584 41.2175 24.6831 41.0348 23.7461C40.8102 22.5933 40.4573 21.5088 39.9943 20.5155C38.498 17.3054 35.875 15.0697 32.8229 14.7257C32.5511 14.6951 32.2778 14.6722 31.9998 14.6722C30.6139 14.6722 29.3033 15.0716 28.1211 15.7691C26.4076 16.7802 24.9772 18.4371 24.0121 20.5011C23.5432 21.5039 23.1866 22.5999 22.961 23.7656C22.7808 24.6966 22.6746 25.6656 22.6746 26.6684Z" fill="#C8C8C8" style="fill:#C8C8C8;fill:color(display-p3 0.7843 0.7843 0.7843);fill-opacity:1;"/>
<path d="M21.3424 21.3369L22.961 23.7659C23.1866 22.6002 23.5432 21.5042 24.0121 20.5014L24.0068 17.3353L22.6781 17.3388L20.2875 19.754L21.3424 21.3369Z" fill="#619B27" style="fill:#619B27;fill:color(display-p3 0.3804 0.6078 0.1529);fill-opacity:1;"/>
<path d="M42.6574 21.3369L43.7152 19.75L41.3285 17.3388L39.9999 17.3353L39.9944 20.5158C40.4575 21.5091 40.8103 22.5935 41.0349 23.7464L42.6574 21.3369Z" fill="#619B27" style="fill:#619B27;fill:color(display-p3 0.3804 0.6078 0.1529);fill-opacity:1;"/>
<path d="M32.823 14.726L34.6643 13.3467L45.322 10.6739L37.9949 8.0081H35.9962L34.6643 9.341H33.3321V12.0068H29.3355V10.6739H30.6677V9.341H29.3355L28.0033 8.0081H26.0051L18.678 10.6592L28.0033 13.3396H29.3355L28.1211 15.7694C29.3034 15.0719 30.6139 14.6725 31.9998 14.6725C32.2778 14.6725 32.5512 14.6954 32.823 14.726Z" fill="#5A2919" style="fill:#5A2919;fill:color(display-p3 0.3529 0.1608 0.0980);fill-opacity:1;"/>
<path d="M26.6651 38.6613L24.0068 37.3314L21.3424 30.8346V21.3375L20.2875 19.754L18.678 17.3383V30.667L22.6746 38.6643L25.3389 39.9972V38.6613H26.6651Z" fill="#2D25C5" style="fill:#2D25C5;fill:color(display-p3 0.1765 0.1451 0.7725);fill-opacity:1;"/>
<path d="M42.6574 30.667L39.993 37.3314L37.3347 38.6613H38.6608V39.9972L41.3252 38.6643L45.322 30.667V17.3383L43.7152 19.75L42.6574 21.3378V30.667Z" fill="#2D25C5" style="fill:#2D25C5;fill:color(display-p3 0.1765 0.1451 0.7725);fill-opacity:1;"/>
<path d="M22.6746 26.6684C22.6746 25.6656 22.7808 24.697 22.961 23.7659L21.3424 21.3369V30.8346L24.0068 37.3314L26.6651 38.6613H30.6677V38.528C26.1503 37.6945 22.6746 32.7101 22.6746 26.6684Z" fill="#F0263C" style="fill:#F0263C;fill:color(display-p3 0.9412 0.1490 0.2353);fill-opacity:1;"/>
<path d="M42.6574 30.667V21.3369L41.0348 23.7463C41.2174 24.6833 41.3252 25.6585 41.3252 26.6684C41.3252 32.7101 37.8495 37.6944 33.332 38.528V38.6613H37.3346L39.993 37.3314L42.6574 30.667Z" fill="#F0263C" style="fill:#F0263C;fill:color(display-p3 0.9412 0.1490 0.2353);fill-opacity:1;"/>
<path d="M33.3321 17.3353V18.6491H34.6643L38.3692 20.2378C36.9099 17.6702 34.6011 16.0084 32.0001 16.0084C29.3991 16.0084 27.0903 17.6701 25.631 20.2376L29.3356 18.6491H30.6678V17.3353H33.3321Z" fill="#4DAFE3" style="fill:#4DAFE3;fill:color(display-p3 0.3020 0.6863 0.8902);fill-opacity:1;"/>
<path d="M27.9997 21.3369H30.6641L33.3316 24.0056H39.74C39.6261 23.4137 39.4734 22.8427 39.2885 22.2953L37.3287 21.3148L34.6643 19.9819H33.3321V20.0009H30.6677V19.9819H29.3355L26.6711 21.3148L24.7116 22.2951C24.5267 22.8426 24.374 23.4137 24.2599 24.0056H25.3377L27.9997 21.3369Z" fill="#4DAFE3" style="fill:#4DAFE3;fill:color(display-p3 0.3020 0.6863 0.8902);fill-opacity:1;"/>
<path d="M30.6541 26.6847L30.6679 26.6714H24.007C24.007 26.7514 24.007 26.8313 24.0136 26.9113V26.6847H30.6541Z" fill="#4DAFE3" style="fill:#4DAFE3;fill:color(display-p3 0.3020 0.6863 0.8902);fill-opacity:1;"/>
<path d="M30.6929 26.6847H39.9932V26.6714H30.6678L30.6929 26.6847Z" fill="#4DAFE3" style="fill:#4DAFE3;fill:color(display-p3 0.3020 0.6863 0.8902);fill-opacity:1;"/>
<path d="M24.0135 26.6847V26.9113C24.0402 28.764 24.4198 30.5034 25.0793 32.0029L30.654 26.6847H24.0135Z" fill="#619B27" style="fill:#619B27;fill:color(display-p3 0.3804 0.6078 0.1529);fill-opacity:1;"/>
<path d="M39.2271 31.2298C39.7199 29.857 39.9932 28.3108 39.9932 26.6847H30.6929L39.2271 31.2298Z" fill="#619B27" style="fill:#619B27;fill:color(display-p3 0.3804 0.6078 0.1529);fill-opacity:1;"/>
<path d="M38.9206 32.0029L38.9229 31.9971L38.9203 32.0029H38.9206Z" fill="#619B27" style="fill:#619B27;fill:color(display-p3 0.3804 0.6078 0.1529);fill-opacity:1;"/>
<path d="M33.6856 37.0945C33.7588 37.0735 33.8308 37.0483 33.9032 37.0247C34.0105 36.9897 34.1177 36.9543 34.2232 36.9136C34.296 36.8856 34.3676 36.8543 34.4393 36.8236C34.5423 36.7797 34.6447 36.7346 34.7458 36.6853C34.8171 36.6506 34.8874 36.6134 34.9577 36.576C35.0568 36.5234 35.155 36.4689 35.252 36.4112C35.3213 36.3699 35.39 36.3272 35.4584 36.2834C35.5535 36.2224 35.6475 36.159 35.7403 36.0932C35.8075 36.0458 35.8741 35.9976 35.94 35.9477C36.0308 35.8789 36.12 35.8071 36.2086 35.7338C36.2735 35.6799 36.3386 35.6261 36.4026 35.5699C36.4876 35.4948 36.5709 35.4161 36.6537 35.3369C36.7173 35.2758 36.7815 35.2156 36.8438 35.1521C36.9226 35.0719 36.9989 34.9877 37.0752 34.9037C37.1377 34.8351 37.2009 34.7678 37.2619 34.6967C37.3316 34.6153 37.3985 34.5295 37.4658 34.445C37.5299 34.3649 37.595 34.2866 37.6569 34.2038C37.71 34.1329 37.7599 34.0578 37.8114 33.9849C38.2276 33.3965 38.5944 32.7465 38.9021 32.0433C38.908 32.0298 38.9145 32.0167 38.9203 32.0031C38.9213 32.0011 38.9223 31.9992 38.9229 31.9972C39.0313 31.747 39.1342 31.4924 39.2271 31.2299L30.6929 26.6848L30.6678 26.6715L30.654 26.6848L25.0793 32.003C26.2463 34.6991 28.2784 36.6448 30.6677 37.1808V35.9956H33.3321V37.1816C33.337 37.1805 33.3419 37.1791 33.3467 37.178C33.4603 37.1523 33.5738 37.1265 33.6856 37.0945ZM29.3355 33.3328V31.9999H34.6643V33.3328H29.3355Z" fill="#007ACC" style="fill:#007ACC;fill:color(display-p3 0.0000 0.4784 0.8000);fill-opacity:1;"/>
<path d="M39.9933 26.6714C39.9933 25.7517 39.9065 24.8587 39.74 24.0056H33.3316L25.5888 24.0061L25.3378 24.0056H24.26C24.0935 24.8586 24.007 25.7517 24.007 26.6714H39.9933Z" fill="#999999" style="fill:#999999;fill:color(display-p3 0.6000 0.6000 0.6000);fill-opacity:1;"/>
<path d="M27.9997 21.3369L25.3378 24.0057L25.5887 24.0061H33.3321L33.3316 24.0057L30.6641 21.3369H27.9997Z" fill="white" style="fill:white;fill-opacity:1;"/>
<path d="M34.6642 31.9999H29.3354V33.3328H34.6642V31.9999Z" fill="#FFD400" style="fill:#FFD400;fill:color(display-p3 1.0000 0.8314 0.0000);fill-opacity:1;"/>
<path d="M30.6677 10.6739H31.945V12.0068H33.3321V9.341H31.9999H30.6677V10.6739Z" fill="#F0F0F0" style="fill:#F0F0F0;fill:color(display-p3 0.9412 0.9412 0.9412);fill-opacity:1;"/>
<path d="M30.6676 10.6739H29.3354V12.0068H30.6676H31.9449V10.6739H30.6676Z" fill="#FFAD66" style="fill:#FFAD66;fill:color(display-p3 1.0000 0.6784 0.4000);fill-opacity:1;"/>
<path d="M25.3405 45.3256V46.6585H28.0047L29.3369 42.6629L29.331 42.6599H26.2287L25.3405 45.3256Z" fill="#FFD400" style="fill:#FFD400;fill:color(display-p3 1.0000 0.8314 0.0000);fill-opacity:1;"/>
<path d="M34.6656 42.6629L35.9965 46.6585H38.6609V45.3256L37.7735 42.6599H34.6718L34.6656 42.6629Z" fill="#FFD400" style="fill:#FFD400;fill:color(display-p3 1.0000 0.8314 0.0000);fill-opacity:1;"/>
<path d="M33.3321 20.001V19.982V18.6491V17.3353H30.6677V18.6491V19.982V20.001H33.3321Z" fill="#FFD400" style="fill:#FFD400;fill:color(display-p3 1.0000 0.8314 0.0000);fill-opacity:1;"/>
<path d="M38.6608 38.6613H37.3347H33.3321V38.528V37.1815V35.9955H30.6677V37.1807V38.528V38.6613H26.6651H25.3389V39.9972V42.4378V42.6599H26.2286H29.3309H30.6677H31.9999H33.3321H34.6718H37.7735H38.6608V42.4378V39.9972V38.6613Z" fill="#CC9500" style="fill:#CC9500;fill:color(display-p3 0.8000 0.5843 0.0000);fill-opacity:1;"/>
<path d="M45.3493 41.3191L38.6883 42.4299V42.652H37.8009L38.6883 45.3177V46.6506H36.0239L34.693 42.655L34.6992 42.652H33.3595V47.9835L33.3507 48.0055H59.7049C62.4298 43.2993 63.9975 37.8398 63.9995 32.011H47.6756L45.3493 41.3191Z" fill="#2D25C5" style="fill:#2D25C5;fill:color(display-p3 0.1765 0.1451 0.7725);fill-opacity:1;"/>
<path d="M30.6952 47.9835V42.652H29.3584L29.3643 42.655L28.0321 46.6506H25.3679V45.3177L26.2561 42.652H25.3665V42.4299L18.7056 41.3191L16.3792 32.011H0.000244141C0.00224414 37.8398 1.56994 43.2993 4.29484 48.0055H30.704L30.6952 47.9835Z" fill="#2D25C5" style="fill:#2D25C5;fill:color(display-p3 0.1765 0.1451 0.7725);fill-opacity:1;"/>
<path d="M33.3596 47.9835V42.652H30.6952V47.9835L30.704 48.0055H4.2948C9.8292 57.5645 20.1597 64 31.9999 64C43.8401 64 54.1705 57.5645 59.705 48.0055H33.3508L33.3596 47.9835Z" fill="#F0263C" style="fill:#F0263C;fill:color(display-p3 0.9412 0.1490 0.2353);fill-opacity:1;"/>
</g>
<defs>
<clipPath id="clip0_6_650">
<rect width="64" height="64" fill="white" style="fill:white;fill-opacity:1;"/>
</clipPath>
</defs>
</svg>
