<svg width="72" height="72" viewBox="0 0 72 72" fill="none" xmlns="http://www.w3.org/2000/svg">
<g clip-path="url(#clip0_5198_115)">
<mask id="mask0_5198_115" style="mask-type:luminance" maskUnits="userSpaceOnUse" x="0" y="0" width="72" height="72">
<path d="M72 0H0V72H72V0Z" fill="white"/>
</mask>
<g mask="url(#mask0_5198_115)">
<path d="M24 69.9434V2.05649C10.0194 6.99951 0 20.3265 0 36C0 51.6735 10.0194 65.0005 24 69.9434Z" fill="#1E5B00"/>
<path d="M48 2.0565C44.2458 0.729112 40.2089 0 36 0C31.7912 0 27.7543 0.729225 24 2.0565V69.9434C27.7542 71.2708 31.7912 72 36 72C40.2089 72 44.2457 71.2708 48 69.9434V2.0565Z" fill="white"/>
<path d="M48 2.05649V69.9434C61.9806 65.0003 72 51.6734 72 36C72 20.3266 61.9806 6.99951 48 2.05649Z" fill="#F0263C"/>
</g>
</g>
<circle cx="36" cy="36" r="35.5" stroke="white" stroke-opacity="0.2"/>
<defs>
<clipPath id="clip0_5198_115">
<rect width="72" height="72" fill="white"/>
</clipPath>
</defs>
</svg>
