<svg width="64" height="64" viewBox="0 0 64 64" fill="none" xmlns="http://www.w3.org/2000/svg">
<g clip-path="url(#clip0_6_1736)">
<path d="M32 64C49.6731 64 64 49.6731 64 32H0C0 49.6731 14.3269 64 32 64Z" fill="#F0263C" style="fill:#F0263C;fill:color(display-p3 0.9412 0.1490 0.2353);fill-opacity:1;"/>
<path d="M32 0C14.3269 0 0 14.3269 0 32H64C64 14.3269 49.6731 0 32 0Z" fill="#191977" style="fill:#191977;fill:color(display-p3 0.0980 0.0980 0.4667);fill-opacity:1;"/>
<path d="M26.6667 21.3333H25.3334L24.0001 22.6666V21.3333H22.6668L25.3335 17.3333L24.0001 21.3333H25.3334L26.6668 20V17.3333L25.3335 16H20.0002L18.6669 18.6667V21.3334H20.0002L22.6669 17.3334L21.3336 21.3334L20.0003 22.6667L17.3336 21.3334L14.6669 22.6667L13.3336 21.3334L12.0003 17.3334L14.667 21.3334H16.0003V18.6667L14.667 16H9.33371L8.00041 17.3333V20L10.6671 21.3333L9.33381 17.3333L12.0005 21.3333H10.6671L10.6672 22.6666L9.33391 21.3333H6.66721L9.33391 26.6666L12.0006 25.3333H13.3339L12.0006 22.6666H13.3339V25.3333H17.3339L16.0006 22.6666L17.3339 23.3333L18.6672 22.6666L17.3339 25.3333H21.3339V22.6666H22.6672L21.3339 25.3333H22.6672L25.3339 26.6666L28.0006 21.3333H26.6667ZM8.00001 22.6666H9.33331L10.6666 25.3333L8.00001 22.6666ZM24 25.3333L25.3333 22.6666H26.6666L24 25.3333Z" fill="#FFD400" style="fill:#FFD400;fill:color(display-p3 1.0000 0.8314 0.0000);fill-opacity:1;"/>
<path d="M18.6667 21.3333L17.6667 17.3333L17.5999 17.0667L18.6667 16L17.7777 15.1111L18.6667 13.3333L17.3333 12L16 13.3333L16.889 15.1111L16 16L17.0667 17.0667L17 17.3333L16 21.3333L17.3333 20L18.6667 21.3333Z" fill="#FFD400" style="fill:#FFD400;fill:color(display-p3 1.0000 0.8314 0.0000);fill-opacity:1;"/>
<path d="M14.6667 22.6667L17.3333 21.3333L20 22.6667L21.3333 21.3333L22.6667 17.3333L20 21.3333H18.6667L17.3333 20L16 21.3333H14.6667L12 17.3333L13.3333 21.3333L14.6667 22.6667Z" fill="black" style="fill:black;fill-opacity:1;"/>
<path d="M10.6667 22.6667V21.3333L8 20V21.3333H9.3333L10.6667 22.6667Z" fill="black" style="fill:black;fill-opacity:1;"/>
<path d="M9.33331 17.3333L10.6667 21.3333H12L9.33331 17.3333Z" fill="black" style="fill:black;fill-opacity:1;"/>
<path d="M24 22.6667L25.3333 21.3333H24V22.6667Z" fill="black" style="fill:black;fill-opacity:1;"/>
<path d="M22.6667 21.3333H24L25.3333 17.3333L22.6667 21.3333Z" fill="black" style="fill:black;fill-opacity:1;"/>
<path d="M17.3333 23.3333L16 22.6667L17.3333 25.3333L18.6667 22.6667L17.3333 23.3333Z" fill="black" style="fill:black;fill-opacity:1;"/>
<path d="M12 22.6667L13.3333 25.3333V22.6667H12Z" fill="black" style="fill:black;fill-opacity:1;"/>
<path d="M21.3333 22.6667V25.3333L22.6667 22.6667H21.3333Z" fill="black" style="fill:black;fill-opacity:1;"/>
<path d="M9.3333 22.6667H8L10.6667 25.3333L9.3333 22.6667Z" fill="black" style="fill:black;fill-opacity:1;"/>
<path d="M24 25.3333L26.6667 22.6667H25.3333L24 25.3333Z" fill="black" style="fill:black;fill-opacity:1;"/>
<path d="M21.3333 25.3333H17.3333H13.3333H12L9.33331 26.6667L12 28H22.6667L25.3333 26.6667L22.6667 25.3333H21.3333Z" fill="black" style="fill:black;fill-opacity:1;"/>
<path d="M16 17.3333L14.6667 16L16 18.6667V21.3333L17 17.3333H16Z" fill="black" style="fill:black;fill-opacity:1;"/>
<path d="M20 16L18.6667 17.3333H17.6667L18.6667 21.3333V18.6667L20 16Z" fill="black" style="fill:black;fill-opacity:1;"/>
<path d="M25.3333 21.3333H26.6667V20L25.3333 21.3333Z" fill="black" style="fill:black;fill-opacity:1;"/>
</g>
<defs>
<clipPath id="clip0_6_1736">
<rect width="64" height="64" fill="white" style="fill:white;fill-opacity:1;"/>
</clipPath>
</defs>
</svg>
