<svg width="64" height="64" viewBox="0 0 64 64" fill="none" xmlns="http://www.w3.org/2000/svg">
<g clip-path="url(#clip0_6_1877)">
<path d="M32 0C14.3269 0 0 14.3269 0 32C0 39.3143 2.4593 46.0513 6.5889 51.4409L62.9487 23.8481C59.3433 10.1241 46.8555 0 32 0Z" fill="#191977" style="fill:#191977;fill:color(display-p3 0.0980 0.0980 0.4667);fill-opacity:1;"/>
<path d="M32 64C47.0496 64 59.6657 53.6082 63.0818 39.6107L10.3347 55.5447C16.0346 60.7923 23.6416 64 32 64Z" fill="#191977" style="fill:#191977;fill:color(display-p3 0.0980 0.0980 0.4667);fill-opacity:1;"/>
<path d="M63.9833 31.3399C63.9309 28.7562 63.5788 26.2466 62.9486 23.848L6.58887 51.4409C7.10847 52.119 7.65157 52.7781 8.22277 53.4118L63.9833 31.3399Z" fill="#FF7700" style="fill:#FF7700;fill:color(display-p3 1.0000 0.4667 0.0000);fill-opacity:1;"/>
<path d="M64 32V31.3333L63.9833 31.3399C63.9878 31.5602 64 31.7786 64 32Z" fill="white" style="fill:white;fill-opacity:1;"/>
<path d="M8.22266 53.4118C8.89286 54.1556 9.59816 54.8667 10.3347 55.5447L63.0818 39.6107C63.6773 37.1706 64 34.6235 64 32C64 31.7786 63.9878 31.5602 63.9833 31.3399L8.22266 53.4118Z" fill="white" style="fill:white;fill-opacity:1;"/>
<path d="M15.3132 20.3048L15.9715 11.8852L16.6297 20.3048L18.582 15.5622L17.9014 20.6456L21.0146 16.5698L19.0416 21.3038L23.1036 18.1727L19.9725 22.2347L24.7065 20.2617L20.6307 23.3749L25.7141 22.6943L20.9715 24.6466L29.3911 25.3048L20.9715 25.9631L25.7141 27.9153L20.6307 27.2347L24.7065 30.348L19.9725 28.3749L23.1036 32.4369L19.0416 29.3058L21.0146 34.0398L17.9014 29.9641L18.582 35.0474L16.6297 30.3048L15.9715 38.7245L15.3132 30.3048L13.361 35.0474L14.0416 29.9641L10.9283 34.0398L12.9014 29.3058L8.83938 32.4369L11.9705 28.3749L7.23648 30.348L11.3122 27.2347L6.22888 27.9153L10.9715 25.9631L2.55188 25.3048L10.9715 24.6466L6.22888 22.6943L11.3122 23.3749L7.23648 20.2617L11.9705 22.2347L8.83938 18.1727L12.9014 21.3038L10.9283 16.5698L14.0416 20.6456L13.361 15.5622L15.3132 20.3048Z" fill="white" style="fill:white;fill-opacity:1;"/>
</g>
<defs>
<clipPath id="clip0_6_1877">
<rect width="64" height="64" fill="white" style="fill:white;fill-opacity:1;"/>
</clipPath>
</defs>
</svg>
