<svg width="64" height="64" viewBox="0 0 64 64" fill="none" xmlns="http://www.w3.org/2000/svg">
<g clip-path="url(#clip0_6_1849)">
<path d="M32 64C49.6731 64 64 49.6731 64 32C64 14.3269 49.6731 0 32 0C14.3269 0 0 14.3269 0 32C0 49.6731 14.3269 64 32 64Z" fill="#F0263C" style="fill:#F0263C;fill:color(display-p3 0.9412 0.1490 0.2353);fill-opacity:1;"/>
<path d="M32 2.6667C48.1745 2.6667 61.3333 15.8256 61.3333 32C61.3333 48.1744 48.1744 61.3333 32 61.3333C15.8256 61.3333 2.6667 48.1744 2.6667 32C2.6667 15.8256 15.8255 2.6667 32 2.6667ZM32 0C14.3269 0 0 14.3269 0 32C0 49.6731 14.3269 64 32 64C49.6731 64 64 49.6731 64 32C64 14.3269 49.6731 0 32 0Z" fill="#FFD400" style="fill:#FFD400;fill:color(display-p3 1.0000 0.8314 0.0000);fill-opacity:1;"/>
<path d="M25.7388 39.0293L22.6667 41.3334L23.9873 42.6541L21.3978 45.195L17.3333 38.6919H16V40.0252L20 46.4252V48.0126H20.9922L22.6667 50.6918H24V49.3585L22.6794 47.2454V46.654L25.3332 44L26.6665 45.3333L28.8279 41.7312C27.5998 41.196 26.3585 40.4542 25.7388 39.0293Z" fill="#FFD400" style="fill:#FFD400;fill:color(display-p3 1.0000 0.8314 0.0000);fill-opacity:1;"/>
<path d="M26.0565 32.4981L25.8255 31.4872L22.6667 30.7424L24 29.3689V26.7387L17.3333 17.342L13.3333 25.3333V32.0781L20 38.7405H25.6304C25.4445 38.2156 25.3334 37.6101 25.3334 36.8935C25.3334 34.9128 25.9081 32.9665 26.0565 32.4981Z" fill="#FFD400" style="fill:#FFD400;fill:color(display-p3 1.0000 0.8314 0.0000);fill-opacity:1;"/>
<path d="M35.1721 41.7312L37.3335 45.3333L38.6668 44L41.3333 46.6667H42.6666V46.673H45.3333V45.3397H42.6666V45.3334L40.0126 42.6541L41.3332 41.3334L38.2611 39.0293C37.6414 40.4543 36.4002 41.1961 35.1721 41.7312Z" fill="#FFD400" style="fill:#FFD400;fill:color(display-p3 1.0000 0.8314 0.0000);fill-opacity:1;"/>
<path d="M38.6667 36.8936C38.6667 37.6102 38.5555 38.2157 38.3697 38.7406H44.0001L50.6668 32.0782V25.3334L46.6668 17.3421L40.0001 26.7388V29.369L41.3334 30.7425L38.1746 31.4873L37.9436 32.4982C38.092 32.9665 38.6667 34.9129 38.6667 36.8936Z" fill="#FFD400" style="fill:#FFD400;fill:color(display-p3 1.0000 0.8314 0.0000);fill-opacity:1;"/>
<path d="M32.0008 43.8333H31.9993C31.9993 43.3016 31.0596 42.6775 29.9366 42.1902L28 48V50.6919L32 52L36 50.6919V48L34.0634 42.1902C32.9404 42.6776 32.0008 43.3017 32.0008 43.8333Z" fill="#FFD400" style="fill:#FFD400;fill:color(display-p3 1.0000 0.8314 0.0000);fill-opacity:1;"/>
<path d="M38.6667 36.8936C38.6667 34.9129 38.092 32.9665 37.9436 32.4981L38.1746 31.4872L38.6667 29.3333L37.163 26.6666H26.8372L25.3335 29.3333L25.8256 31.4872L26.0566 32.4981C25.9082 32.9664 25.3335 34.9129 25.3335 36.8936C25.3335 37.6102 25.4447 38.2157 25.6305 38.7406C25.6652 38.8385 25.6989 38.9373 25.7389 39.0293C26.3586 40.4543 27.5999 41.1961 28.828 41.7312C29.0771 41.8398 29.3255 41.9399 29.5681 42.0356C29.693 42.0848 29.8152 42.1374 29.9368 42.1902C31.0598 42.6776 31.9995 43.3017 31.9995 43.8333H32.001C32.001 43.3016 32.9407 42.6775 34.0637 42.1902C34.1853 42.1374 34.3074 42.0849 34.4324 42.0356C34.675 41.9399 34.9234 41.8398 35.1725 41.7312C36.4006 41.196 37.6419 40.4542 38.2616 39.0293C38.3016 38.9373 38.3353 38.8385 38.37 38.7406C38.5559 38.2157 38.6667 37.6102 38.6667 36.8936ZM34.1307 40.72C34.0682 40.7451 34.0069 40.7702 33.9432 40.7953C33.7585 40.8681 33.5834 40.9419 33.4146 41.0165C32.8594 41.2617 32.3878 41.5165 31.9999 41.787C31.9231 41.7327 31.8362 41.6801 31.7523 41.627C31.2892 41.3374 30.7292 41.0603 30.0572 40.7954C28.0722 40.0125 26.6666 39.2746 26.6666 36.8937C26.6666 35.0789 27.2174 33.2492 27.3274 32.9009L27.4374 32.5549L26.7479 29.5393L27.6157 28.0002H36.3846L37.2518 29.5393L36.563 32.5553L36.673 32.901C36.7648 33.1914 37.1593 34.5153 37.2886 36.0005H37.2932C37.2958 36.0299 37.2948 36.0605 37.2972 36.09C37.3183 36.3555 37.3331 36.6239 37.3331 36.8938C37.3331 39.1989 36.0183 39.9653 34.1307 40.72Z" fill="#CC9500" style="fill:#CC9500;fill:color(display-p3 0.8000 0.5843 0.0000);fill-opacity:1;"/>
<path d="M33.4146 41.0164C33.5835 40.9419 33.7585 40.868 33.9432 40.7952C34.0069 40.7701 34.0682 40.745 34.1307 40.7199C34.0693 40.7444 34.0092 40.769 33.9467 40.7935C33.7608 40.8669 33.5846 40.9413 33.4146 41.0164Z" fill="#007ACC" style="fill:#007ACC;fill:color(display-p3 0.0000 0.4784 0.8000);fill-opacity:1;"/>
<path d="M30.0599 40.7936C28.0732 40.0136 26.6665 39.2736 26.6665 36.8936C26.6665 39.2745 28.0721 40.0124 30.0571 40.7953C30.7291 41.0602 31.2892 41.3374 31.7522 41.6269C31.2909 41.3345 30.7312 41.0587 30.0599 40.7936Z" fill="#007ACC" style="fill:#007ACC;fill:color(display-p3 0.0000 0.4784 0.8000);fill-opacity:1;"/>
<path d="M37.2887 36.0003C37.1594 34.5151 36.7649 33.1912 36.6731 32.9008L36.5631 32.5551L37.2519 29.5391L36.3847 28H27.6158L26.748 29.5391L27.4375 32.5547L27.3275 32.9007C27.2175 33.249 26.6667 35.0788 26.6667 36.8935C26.6667 36.5935 26.68 36.2935 26.7134 36.0002L37.2887 36.0003ZM28 29.3365H30.6667V32H34.6667V30.6698H36V36H34.6667V34.6667H29.3334V36H28.0001L28 29.3365Z" fill="#007ACC" style="fill:#007ACC;fill:color(display-p3 0.0000 0.4784 0.8000);fill-opacity:1;"/>
<path d="M37.3332 36.8936C37.3332 36.6237 37.3189 36.3549 37.2973 36.0898C37.2949 36.0603 37.2959 36.0297 37.2933 36.0003H26.7132C26.6798 36.2936 26.6665 36.5936 26.6665 36.8936C26.6665 39.2736 28.0732 40.0136 30.0599 40.7936C30.7312 41.0587 31.291 41.3345 31.7523 41.6269C31.8361 41.68 31.923 41.7326 31.9999 41.7869C32.3878 41.5164 32.8594 41.2616 33.4146 41.0164C33.5845 40.9413 33.7608 40.867 33.9467 40.7936C34.0092 40.769 34.0694 40.7445 34.1308 40.72C36.0183 39.9654 37.3332 39.1987 37.3332 36.8936Z" fill="#619B27" style="fill:#619B27;fill:color(display-p3 0.3804 0.6078 0.1529);fill-opacity:1;"/>
<path d="M28 34.6667V36H29.3333V34.6667H34.6667V36H36V34.6667V32.0031V32V30.6698H34.6667V32H30.6667V29.3365H28V32V32.0031V34.6667Z" fill="#FFD400" style="fill:#FFD400;fill:color(display-p3 1.0000 0.8314 0.0000);fill-opacity:1;"/>
<path d="M42.6667 45.3396H45.3334V45.3333V42.673H42.6667V45.2581V45.3333V45.3396Z" fill="#007ACC" style="fill:#007ACC;fill:color(display-p3 0.0000 0.4784 0.8000);fill-opacity:1;"/>
<path d="M29.3334 20H25.3334V22.7041H28.0001V26.6667H31.9999L29.3334 20Z" fill="#FFD400" style="fill:#FFD400;fill:color(display-p3 1.0000 0.8314 0.0000);fill-opacity:1;"/>
<path d="M32.0001 26.6667H35.9999V22.7041H38.6666V20H34.6667V18.6667L36 16V14.6667L33.3333 13.3333H30.6667L28 14.6667V16L29.3333 18.6667V20H34.6666L32.0001 26.6667Z" fill="#FFD400" style="fill:#FFD400;fill:color(display-p3 1.0000 0.8314 0.0000);fill-opacity:1;"/>
</g>
<defs>
<clipPath id="clip0_6_1849">
<rect width="64" height="64" fill="white" style="fill:white;fill-opacity:1;"/>
</clipPath>
</defs>
</svg>
