<svg width="64" height="64" viewBox="0 0 64 64" fill="none" xmlns="http://www.w3.org/2000/svg">
<g clip-path="url(#clip0_6_2183)">
<path d="M32 64C49.6731 64 64 49.6731 64 32C64 14.3269 49.6731 0 32 0C14.3269 0 0 14.3269 0 32C0 49.6731 14.3269 64 32 64Z" fill="#191977" style="fill:#191977;fill:color(display-p3 0.0980 0.0980 0.4667);fill-opacity:1;"/>
<path d="M0 32C0 32.8989 0.0465 33.7865 0.1192 34.6667H63.8808C63.9535 33.7865 64 32.899 64 32C64 31.101 63.9535 30.2135 63.8808 29.3333H0.1192C0.0465 30.2135 0 31.1011 0 32Z" fill="#FFD400" style="fill:#FFD400;fill:color(display-p3 1.0000 0.8314 0.0000);fill-opacity:1;"/>
<path d="M25.1485 46.7129L30.6666 45.3333L25.1485 43.9538L29.2376 40L23.7689 41.5644L25.3333 36.0957L21.3795 40.1848L20 34.6667L18.6204 40.1848L14.6666 36.0957L16.231 41.5644L10.7624 40L14.8515 43.9538L9.33325 45.3333L14.8515 46.7129L10.7624 50.6667L16.231 49.1023L14.6666 54.5709L18.6204 50.4819L20 56L21.3795 50.4819L25.3333 54.5709L23.7689 49.1023L29.2376 50.6667L25.1485 46.7129Z" fill="white" style="fill:white;fill-opacity:1;"/>
</g>
<defs>
<clipPath id="clip0_6_2183">
<rect width="64" height="64" fill="white" style="fill:white;fill-opacity:1;"/>
</clipPath>
</defs>
</svg>
