<svg width="64" height="64" viewBox="0 0 64 64" fill="none" xmlns="http://www.w3.org/2000/svg">
<g clip-path="url(#clip0_6_2365)">
<path d="M64 32C64 14.3269 49.6731 0 32 0C28.2588 0 24.6705 0.6482 21.3333 1.828V62.1719C24.6704 63.3518 28.2588 64 32 64C49.6731 64 64 49.6731 64 32Z" fill="#F0263C" style="fill:#F0263C;fill:color(display-p3 0.9412 0.1490 0.2353);fill-opacity:1;"/>
<path d="M0 32C0 45.9319 8.9061 57.7782 21.3333 62.1719V1.828C8.9061 6.2218 0 18.068 0 32Z" fill="#1E5B00" style="fill:#1E5B00;fill:color(display-p3 0.1176 0.3569 0.0000);fill-opacity:1;"/>
<path d="M21.3333 18.6667C14.7059 18.6667 9.33325 24.0393 9.33325 30.6667C9.33325 37.2941 14.7059 42.6667 21.3333 42.6667C27.9607 42.6667 33.3333 37.2942 33.3333 30.6667C33.3333 24.0392 27.9607 18.6667 21.3333 18.6667ZM30.5094 32L29.2352 32.6371C29.1506 33.2198 29.0061 33.7876 28.8148 34.338L31.7709 32.8599C31.5208 34.0516 31.0629 35.1646 30.4505 36.1745L28.7639 34.4879C28.6003 34.9336 28.4043 35.3667 28.1726 35.7822L29.2526 36.862L27.2301 37.1509C26.6946 37.7893 26.074 38.3226 25.4018 38.7588L28.7973 38.2737C27.021 40.0169 24.6387 41.1352 22 41.2995V39.956C21.7785 39.9766 21.5573 39.9999 21.3333 39.9999C21.1093 39.9999 20.8881 39.9765 20.6666 39.956V41.2995C18.0278 41.1352 15.6456 40.0168 13.8692 38.2737L17.2647 38.7588C16.5925 38.3226 15.9719 37.7894 15.4364 37.1509L13.4139 36.862L14.4939 35.7822C14.2621 35.3667 14.0662 34.9336 13.9026 34.4879L12.216 36.1745C11.6035 35.1646 11.1457 34.0515 10.8956 32.8599L13.8518 34.338C13.6606 33.7876 13.5161 33.2198 13.4314 32.6371L12.1572 32L13.3382 31.4095C13.3375 31.3638 13.3333 31.3186 13.3333 31.2727V29.9213L10.6956 31.24C10.6854 31.049 10.6665 30.8602 10.6665 30.6666C10.6665 29.6528 10.8177 28.6753 11.0831 27.7455L13.3332 29.2457V27.6432L12.1704 26.8681L13.3332 26.4805V25.0788L11.9941 25.5233C12.3704 24.8427 12.8228 24.2113 13.3332 23.6325V22.6665H14.3012C16.024 21.1541 18.2347 20.1851 20.6666 20.0336V22.6665H21.9999V20.0336C24.4318 20.1851 26.6424 21.1541 28.3651 22.6665H29.3332V23.6327C29.8428 24.2107 30.2946 24.8412 30.6706 25.5206L29.3332 25.0748V26.4804L30.496 26.868L29.3332 27.6431V29.2455L31.5833 27.7454C31.8487 28.6751 31.9999 29.6527 31.9999 30.6665C31.9999 30.8601 31.9811 31.0488 31.9708 31.2399L29.3332 29.9212V31.2726C29.3332 31.3185 29.3289 31.3636 29.3283 31.4094L30.5094 32Z" fill="#FFD400" style="fill:#FFD400;fill:color(display-p3 1.0000 0.8314 0.0000);fill-opacity:1;"/>
<path d="M26.6232 32H24V29.3333H26.6667V25.3333H22.6667V28H20V25.3333H16V29.3333H18.6667V32H16.0435C16.0684 32.2308 16.1028 32.4582 16.1502 32.6803C16.1554 32.7048 16.1586 32.7303 16.1641 32.7547C16.3424 33.5452 16.6594 34.2745 17.0814 34.9091C17.1439 35.0031 17.215 35.0886 17.282 35.1782C17.6075 35.6136 17.9792 36.0032 18.3984 36.3209C18.6517 36.5128 18.9241 36.6719 19.2048 36.813C19.4189 36.9206 19.6395 37.0127 19.867 37.0878C20.1354 37.1763 20.4091 37.25 20.6928 37.2892C20.9028 37.3183 21.1165 37.3332 21.3332 37.3332C21.7666 37.3332 22.1881 37.2734 22.5917 37.1608C22.9954 37.0482 23.3812 36.8827 23.7434 36.6714C23.9245 36.5657 24.0996 36.4486 24.2681 36.3209C24.6873 36.0032 25.059 35.6136 25.3845 35.1782C25.4515 35.0886 25.5227 35.003 25.5851 34.9091C26.0071 34.2745 26.324 33.5452 26.5024 32.7547C26.5079 32.7303 26.5111 32.7049 26.5163 32.6803C26.5637 32.4582 26.5983 32.2308 26.6232 32ZM20 29.3333H22.6667V32H20V29.3333ZM22.6667 36H20V33.3333H22.6667V36Z" fill="white" style="fill:white;fill-opacity:1;"/>
<path d="M17.3333 24L16 25.3333H20H21.3333L20 24L21.3333 22.6667H20.6667H16L17.3333 24Z" fill="#F0263C" style="fill:#F0263C;fill:color(display-p3 0.9412 0.1490 0.2353);fill-opacity:1;"/>
<path d="M27.9999 24L26.6666 25.3333V29.3333V30.6667L27.9999 29.3333L29.3332 30.6667V29.9213V29.2457V27.6433V26.4806V25.3333V25.075V23.6329V22.6667H28.3651H26.6666L27.9999 24Z" fill="#F0263C" style="fill:#F0263C;fill:color(display-p3 0.9412 0.1490 0.2353);fill-opacity:1;"/>
<path d="M22.6667 24L21.3333 25.3333H22.6667H26.6667L25.3333 24L26.6667 22.6667H22H21.3333L22.6667 24Z" fill="#F0263C" style="fill:#F0263C;fill:color(display-p3 0.9412 0.1490 0.2353);fill-opacity:1;"/>
<path d="M16 30.6667V29.3333V25.3333L14.6667 24L16 22.6667H14.3013H13.3333V23.6326V25.0789V25.3333V26.4806V27.6433V29.2458V29.9213V30.6667L14.6667 29.3333L16 30.6667Z" fill="#F0263C" style="fill:#F0263C;fill:color(display-p3 0.9412 0.1490 0.2353);fill-opacity:1;"/>
<path d="M29.3332 30.6667L27.9999 32L26.6666 30.6667V31.2727V32H26.6231C26.5982 32.2308 26.5638 32.4582 26.5164 32.6803C26.5112 32.7048 26.508 32.7303 26.5025 32.7547C26.3242 33.5452 26.0072 34.2745 25.5852 34.9091C25.5227 35.0031 25.4516 35.0886 25.3846 35.1782C25.0591 35.6136 24.6874 36.0032 24.2682 36.3209C24.0997 36.4486 23.9246 36.5657 23.7435 36.6714C23.3814 36.8827 22.9955 37.0482 22.5918 37.1608C22.1882 37.2734 21.7667 37.3332 21.3333 37.3332C21.1166 37.3332 20.9029 37.3183 20.6929 37.2892C20.4092 37.25 20.1354 37.1763 19.8671 37.0878C19.6395 37.0128 19.419 36.9206 19.2049 36.813C18.9241 36.6719 18.6517 36.5128 18.3985 36.3209C17.9793 36.0032 17.6076 35.6136 17.2821 35.1782C17.2151 35.0886 17.1439 35.003 17.0815 34.9091C16.6595 34.2745 16.3426 33.5452 16.1642 32.7547C16.1587 32.7303 16.1555 32.7049 16.1503 32.6803C16.1029 32.4582 16.0685 32.2308 16.0436 32H16.0001V31.2727V30.6666L14.6668 31.9999L13.3335 30.6666V31.2727C13.3335 31.3186 13.3378 31.3637 13.3384 31.4095C13.3443 31.8232 13.3729 32.2336 13.4316 32.6371C13.5163 33.2198 13.6608 33.7876 13.852 34.338C13.8693 34.3878 13.8847 34.4384 13.9029 34.4879C14.0665 34.9336 14.2624 35.3667 14.4942 35.7822C14.6087 35.9874 14.7303 36.1891 14.8611 36.3856C15.0399 36.6545 15.2335 36.9084 15.4368 37.1508C15.9722 37.7892 16.5929 38.3225 17.2651 38.7587C18.297 39.4283 19.4568 39.8435 20.6669 39.956C20.8884 39.9766 21.1096 39.9999 21.3336 39.9999C21.5576 39.9999 21.7788 39.9765 22.0003 39.956C23.2105 39.8435 24.3703 39.4283 25.4022 38.7587C26.0744 38.3225 26.695 37.7893 27.2305 37.1508C27.4338 36.9084 27.6274 36.6545 27.8062 36.3855C27.9369 36.1889 28.0586 35.9873 28.173 35.7821C28.4048 35.3666 28.6008 34.9335 28.7643 34.4878C28.7825 34.4383 28.7979 34.3877 28.8152 34.3379C29.0064 33.7875 29.1509 33.2197 29.2356 32.637C29.2942 32.2335 29.3229 31.8231 29.3288 31.4094C29.3295 31.3637 29.3337 31.3185 29.3337 31.2726L29.3332 30.6667ZM17.3332 38L18.6665 36.6667L19.9998 38L18.6665 39.3333L17.3332 38ZM25.3332 38L23.9999 39.3333L22.6666 38L23.9999 36.6667L25.3332 38Z" fill="#F0263C" style="fill:#F0263C;fill:color(display-p3 0.9412 0.1490 0.2353);fill-opacity:1;"/>
<path d="M22.6667 28V25.3333H21.3333H20V28H22.6667Z" fill="#2D25C5" style="fill:#2D25C5;fill:color(display-p3 0.1765 0.1451 0.7725);fill-opacity:1;"/>
<path d="M22.6667 29.3333H20V32H22.6667V29.3333Z" fill="#2D25C5" style="fill:#2D25C5;fill:color(display-p3 0.1765 0.1451 0.7725);fill-opacity:1;"/>
<path d="M18.6667 32V29.3333H16V30.6667V31.2727V32H16.0435H18.6667Z" fill="#2D25C5" style="fill:#2D25C5;fill:color(display-p3 0.1765 0.1451 0.7725);fill-opacity:1;"/>
<path d="M26.6667 29.3333H24V32H26.6232H26.6667V31.2727V30.6667V29.3333Z" fill="#2D25C5" style="fill:#2D25C5;fill:color(display-p3 0.1765 0.1451 0.7725);fill-opacity:1;"/>
<path d="M22.6667 33.3333H20V36H22.6667V33.3333Z" fill="#2D25C5" style="fill:#2D25C5;fill:color(display-p3 0.1765 0.1451 0.7725);fill-opacity:1;"/>
<path d="M21.3332 22.6667L19.9999 24L21.3332 25.3333L22.6665 24L21.3332 22.6667Z" fill="#FFD400" style="fill:#FFD400;fill:color(display-p3 1.0000 0.8314 0.0000);fill-opacity:1;"/>
<path d="M15.9999 22.6666L14.6666 23.9999L15.9999 25.3333L17.3333 23.9999L15.9999 22.6666Z" fill="#FFD400" style="fill:#FFD400;fill:color(display-p3 1.0000 0.8314 0.0000);fill-opacity:1;"/>
<path d="M14.6667 29.3334L13.3334 30.6667L14.6667 32L16 30.6667L14.6667 29.3334Z" fill="#FFD400" style="fill:#FFD400;fill:color(display-p3 1.0000 0.8314 0.0000);fill-opacity:1;"/>
<path d="M18.6667 36.6667L17.3334 38L18.6667 39.3333L20 38L18.6667 36.6667Z" fill="#FFD400" style="fill:#FFD400;fill:color(display-p3 1.0000 0.8314 0.0000);fill-opacity:1;"/>
<path d="M23.9999 36.6667L22.6666 38L23.9999 39.3333L25.3333 38L23.9999 36.6667Z" fill="#FFD400" style="fill:#FFD400;fill:color(display-p3 1.0000 0.8314 0.0000);fill-opacity:1;"/>
<path d="M27.9999 29.3333L26.6666 30.6666L27.9999 31.9999L29.3333 30.6666L27.9999 29.3333Z" fill="#FFD400" style="fill:#FFD400;fill:color(display-p3 1.0000 0.8314 0.0000);fill-opacity:1;"/>
<path d="M26.6666 22.6666L25.3333 23.9999L26.6666 25.3333L27.9999 23.9999L26.6666 22.6666Z" fill="#FFD400" style="fill:#FFD400;fill:color(display-p3 1.0000 0.8314 0.0000);fill-opacity:1;"/>
</g>
<defs>
<clipPath id="clip0_6_2365">
<rect width="64" height="64" fill="white" style="fill:white;fill-opacity:1;"/>
</clipPath>
</defs>
</svg>
