<svg width="64" height="64" viewBox="0 0 64 64" fill="none" xmlns="http://www.w3.org/2000/svg">
<g clip-path="url(#clip0_6_2638)">
<path d="M36.6618 36.0033L34.6667 37.3333V38.6667L36 37.3333H38.6667L37.6691 36.0033H36.6618Z" fill="white" style="fill:white;fill-opacity:1;"/>
<path d="M34.7236 30.6667L36 32.9623V30.6667H34.7236Z" fill="white" style="fill:white;fill-opacity:1;"/>
<path d="M37.3333 30.6667V32H38.6667L37.3333 29.3333V28L36 26.6667V30.6667H37.3333Z" fill="white" style="fill:white;fill-opacity:1;"/>
<path d="M37.3333 34.6667H38.6667L37.3333 32V34.6667Z" fill="white" style="fill:white;fill-opacity:1;"/>
<path d="M29.2764 30.6667H28V32.9623L29.2764 30.6667Z" fill="white" style="fill:white;fill-opacity:1;"/>
<path d="M32 37.3333L30.6699 36.0033H29.3366L30.6667 37.3333H32Z" fill="white" style="fill:white;fill-opacity:1;"/>
<path d="M28.7933 33.3333H29.3333L30.6666 32L31.9999 33.3333L32.6666 32.6666L33.3333 33.3333H35.2067L32 27.5654L28.7933 33.3333ZM33.5 30.6666C33.5 31.4937 32.8271 32.1666 32 32.1666C31.1729 32.1666 30.5 31.4937 30.5 30.6666C30.5 29.8395 31.1729 29.1666 32 29.1666C32.8271 29.1666 33.5 29.8395 33.5 30.6666Z" fill="white" style="fill:white;fill-opacity:1;"/>
<path d="M33.3333 37.3333L34.6634 36.0033H33.3301L32 37.3333H33.3333Z" fill="white" style="fill:white;fill-opacity:1;"/>
<path d="M26.6667 30.6667H28V26.6667L26.6667 28V29.3333L25.3333 32H26.6667V30.6667Z" fill="white" style="fill:white;fill-opacity:1;"/>
<path d="M62.1719 21.3333H1.8281C0.6483 24.6705 0 28.2588 0 32C0 35.7412 0.6483 39.3295 1.8281 42.6667H62.1719C63.3519 39.3296 64 35.7412 64 32C64 28.2588 63.3519 24.6705 62.1719 21.3333ZM34.6667 40H33.3334V41.3333L32.0001 40L30.6668 41.3333V40H26.6668L27.3335 39.3333L25.3335 37.3333L24.0002 34.6666H25.3335L24.0002 31.9999H25.3335L24.0002 29.3332H25.3335L26.6668 27.9999L25.3335 26.6666H29.3335V30.5641L30.6668 28.1659V23.9999H32.0001V25.7678L34.6668 30.5641V26.6666H38.6668L37.3335 27.9999L38.6668 29.3332H40.0001L38.6668 31.9999H40.0001L38.6668 34.6666H40.0001L38.6668 37.3333L36.6668 39.3333L37.3335 40H34.6667ZM37.6003 41.5501L37.0664 40.7044C39.8424 38.9508 41.5 35.9459 41.5 32.6666C41.5 27.4283 37.2383 23.1666 32 23.1666C26.7617 23.1666 22.5 27.4283 22.5 32.6666C22.5 35.9459 24.1576 38.9508 26.9336 40.7044L26.3997 41.5501C23.3317 39.6119 21.5 36.291 21.5 32.6666C21.5 26.8769 26.2103 22.1666 32 22.1666C37.7897 22.1666 42.5 26.8769 42.5 32.6666C42.5 36.2909 40.6683 39.6119 37.6003 41.5501Z" fill="white" style="fill:white;fill-opacity:1;"/>
<path d="M29.3333 38.6667V37.3333L27.3382 36.0033H26.3309L25.3333 37.3333H28L29.3333 38.6667Z" fill="white" style="fill:white;fill-opacity:1;"/>
<path d="M29.3333 38.6667L30.6667 40V38.6667H29.3333Z" fill="white" style="fill:white;fill-opacity:1;"/>
<path d="M26.6667 32L25.3333 34.6667H26.6667V32Z" fill="white" style="fill:white;fill-opacity:1;"/>
<path d="M33.3333 38.6667V40L34.6667 38.6667H33.3333Z" fill="white" style="fill:white;fill-opacity:1;"/>
<path d="M32 0C18.068 0 6.22179 8.9061 1.82809 21.3333H62.1719C57.7782 8.9061 45.932 0 32 0Z" fill="#2D25C5" style="fill:#2D25C5;fill:color(display-p3 0.1765 0.1451 0.7725);fill-opacity:1;"/>
<path d="M32 64C45.932 64 57.7782 55.0939 62.1719 42.6667H1.82809C6.22179 55.0939 18.068 64 32 64Z" fill="#2D25C5" style="fill:#2D25C5;fill:color(display-p3 0.1765 0.1451 0.7725);fill-opacity:1;"/>
<path d="M32 24H30.6667V28.166L32 25.7679V24Z" fill="#2D25C5" style="fill:#2D25C5;fill:color(display-p3 0.1765 0.1451 0.7725);fill-opacity:1;"/>
<path d="M29.2764 30.6667L29.3333 30.5642V26.6667H28V30.6667H29.2764Z" fill="#2D25C5" style="fill:#2D25C5;fill:color(display-p3 0.1765 0.1451 0.7725);fill-opacity:1;"/>
<path d="M28 30.6667H26.6667V32V34.6667H27.0524L28 32.9623V30.6667Z" fill="#2D25C5" style="fill:#2D25C5;fill:color(display-p3 0.1765 0.1451 0.7725);fill-opacity:1;"/>
<path d="M36 30.6667V26.6667H34.6667V30.5642L34.7236 30.6667H36Z" fill="#2D25C5" style="fill:#2D25C5;fill:color(display-p3 0.1765 0.1451 0.7725);fill-opacity:1;"/>
<path d="M37.3333 32V30.6667H36V32.9623L36.9476 34.6667H37.3333V32Z" fill="#2D25C5" style="fill:#2D25C5;fill:color(display-p3 0.1765 0.1451 0.7725);fill-opacity:1;"/>
<path d="M30.6667 38.6667V40V41.3333L32 40L33.3333 41.3333V40V38.6667H30.6667Z" fill="#2D25C5" style="fill:#2D25C5;fill:color(display-p3 0.1765 0.1451 0.7725);fill-opacity:1;"/>
<path d="M31.6107 29.7452C31.4313 29.8211 31.2787 29.9479 31.1708 30.1075C31.0631 30.2671 31.0001 30.4595 31.0001 30.6666C31.0001 30.8737 31.0631 31.0661 31.1708 31.2257C31.2787 31.3853 31.4314 31.5121 31.6107 31.588C31.7305 31.6386 31.862 31.6666 32 31.6666C32.138 31.6666 32.2695 31.6386 32.3893 31.588C32.5088 31.5374 32.6165 31.4642 32.707 31.3737C32.888 31.1928 33 30.9427 33 30.6666C33 30.3905 32.888 30.1405 32.707 29.9595C32.6165 29.869 32.5088 29.7958 32.3893 29.7452C32.2695 29.6946 32.138 29.6666 32 29.6666C31.862 29.6666 31.7305 29.6946 31.6107 29.7452Z" fill="#F0263C" style="fill:#F0263C;fill:color(display-p3 0.9412 0.1490 0.2353);fill-opacity:1;"/>
<path d="M30.5 30.6667C30.5 31.4938 31.1729 32.1667 32 32.1667C32.8271 32.1667 33.5 31.4938 33.5 30.6667C33.5 29.8396 32.8271 29.1667 32 29.1667C31.1729 29.1667 30.5 29.8396 30.5 30.6667ZM32.707 29.9596C32.888 30.1406 33 30.3905 33 30.6667C33 30.9429 32.888 31.1929 32.707 31.3738C32.6165 31.4643 32.5088 31.5375 32.3893 31.5881C32.2695 31.6387 32.138 31.6667 32 31.6667C31.862 31.6667 31.7305 31.6387 31.6107 31.5881C31.4313 31.5122 31.2787 31.3854 31.1708 31.2258C31.0631 31.0662 31.0001 30.8738 31.0001 30.6667C31.0001 30.4596 31.0631 30.2672 31.1708 30.1076C31.2787 29.948 31.4314 29.8212 31.6107 29.7453C31.7305 29.6947 31.862 29.6667 32 29.6667C32.138 29.6667 32.2695 29.6947 32.3893 29.7453C32.5088 29.7959 32.6165 29.8692 32.707 29.9596Z" fill="#FF99CC" style="fill:#FF99CC;fill:color(display-p3 1.0000 0.6000 0.8000);fill-opacity:1;"/>
<path d="M33.3333 37.3333H32H30.6667H29.3333V38.6667H30.6667H33.3333H34.6667V37.3333H33.3333Z" fill="#C8C8C8" style="fill:#C8C8C8;fill:color(display-p3 0.7843 0.7843 0.7843);fill-opacity:1;"/>
<path d="M29.3366 36.0033H27.3382L29.3333 37.3333H30.6667L29.3366 36.0033Z" fill="#2D25C5" style="fill:#2D25C5;fill:color(display-p3 0.1765 0.1451 0.7725);fill-opacity:1;"/>
<path d="M33.3301 36.0033H30.6699L32 37.3333L33.3301 36.0033Z" fill="#2D25C5" style="fill:#2D25C5;fill:color(display-p3 0.1765 0.1451 0.7725);fill-opacity:1;"/>
<path d="M34.6667 37.3333L36.6618 36.0033H34.6634L33.3333 37.3333H34.6667Z" fill="#2D25C5" style="fill:#2D25C5;fill:color(display-p3 0.1765 0.1451 0.7725);fill-opacity:1;"/>
<path d="M26.6667 28L25.3333 29.3333H24L25.3333 32L26.6667 29.3333V28Z" fill="#619B27" style="fill:#619B27;fill:color(display-p3 0.3804 0.6078 0.1529);fill-opacity:1;"/>
<path d="M25.3333 32H24L25.3333 34.6667L26.6667 32H25.3333Z" fill="#619B27" style="fill:#619B27;fill:color(display-p3 0.3804 0.6078 0.1529);fill-opacity:1;"/>
<path d="M28 37.3333H25.3333L27.3333 39.3333L26.6667 40H28H29.3333H30.6667L29.3333 38.6667L28 37.3333Z" fill="#619B27" style="fill:#619B27;fill:color(display-p3 0.3804 0.6078 0.1529);fill-opacity:1;"/>
<path d="M26.3092 36.0033L27.0524 34.6667H26.6667H25.3333H24L25.3333 37.3333L26.3309 36.0033H26.3092Z" fill="#619B27" style="fill:#619B27;fill:color(display-p3 0.3804 0.6078 0.1529);fill-opacity:1;"/>
<path d="M35.3333 34H28.6667L29.3333 33.3333H28.7933L27.7943 35.1302H36.2057L35.2067 33.3333H34.6667L35.3333 34Z" fill="#007ACC" style="fill:#007ACC;fill:color(display-p3 0.0000 0.4784 0.8000);fill-opacity:1;"/>
<path d="M38.6667 32L40 29.3333H38.6667L37.3333 28V29.3333L38.6667 32Z" fill="#619B27" style="fill:#619B27;fill:color(display-p3 0.3804 0.6078 0.1529);fill-opacity:1;"/>
<path d="M38.6667 34.6667L40 32H38.6667H37.3333L38.6667 34.6667Z" fill="#619B27" style="fill:#619B27;fill:color(display-p3 0.3804 0.6078 0.1529);fill-opacity:1;"/>
<path d="M36.6667 39.3333L38.6667 37.3333H36L34.6667 38.6667L33.3333 40H34.6667H36H37.3333L36.6667 39.3333Z" fill="#619B27" style="fill:#619B27;fill:color(display-p3 0.3804 0.6078 0.1529);fill-opacity:1;"/>
<path d="M36.9476 34.6667L37.6908 36.0033H37.6691L38.6667 37.3333L40 34.6667H38.6667H37.3333H36.9476Z" fill="#619B27" style="fill:#619B27;fill:color(display-p3 0.3804 0.6078 0.1529);fill-opacity:1;"/>
<path d="M28 32.9623L27.0524 34.6667L26.3092 36.0033H37.6907L36.9475 34.6667L35.9999 32.9623L34.7235 30.6667L34.6665 30.5642L31.9998 25.7679L30.6665 28.166L29.3332 30.5642L29.2762 30.6667L28 32.9623ZM35.2067 33.3334L36.2057 35.1303H27.7942L28.7932 33.3334L31.9999 27.5655L35.2067 33.3334Z" fill="#CC9500" style="fill:#CC9500;fill:color(display-p3 0.8000 0.5843 0.0000);fill-opacity:1;"/>
<path d="M25.3333 26.6667L26.6667 28L28 26.6667H25.3333Z" fill="#619B27" style="fill:#619B27;fill:color(display-p3 0.3804 0.6078 0.1529);fill-opacity:1;"/>
<path d="M38.6667 26.6667H36L37.3333 28L38.6667 26.6667Z" fill="#619B27" style="fill:#619B27;fill:color(display-p3 0.3804 0.6078 0.1529);fill-opacity:1;"/>
<path d="M35.3333 34L34.6667 33.3333H33.3333L32.6667 32.6667L32 33.3333L30.6667 32L29.3333 33.3333L28.6667 34H35.3333Z" fill="#619B27" style="fill:#619B27;fill:color(display-p3 0.3804 0.6078 0.1529);fill-opacity:1;"/>
<path d="M32 22.1667C26.2103 22.1667 21.5 26.877 21.5 32.6667C21.5 36.291 23.3317 39.612 26.3997 41.5502L26.9336 40.7045C24.1576 38.9509 22.5 35.946 22.5 32.6667C22.5 27.4284 26.7617 23.1667 32 23.1667C37.2383 23.1667 41.5 27.4284 41.5 32.6667C41.5 35.946 39.8424 38.9509 37.0664 40.7045L37.6003 41.5502C40.6683 39.612 42.5 36.2911 42.5 32.6667C42.5 26.877 37.7897 22.1667 32 22.1667Z" fill="#CC9500" style="fill:#CC9500;fill:color(display-p3 0.8000 0.5843 0.0000);fill-opacity:1;"/>
</g>
<defs>
<clipPath id="clip0_6_2638">
<rect width="64" height="64" fill="white" style="fill:white;fill-opacity:1;"/>
</clipPath>
</defs>
</svg>
