<svg width="64" height="64" viewBox="0 0 64 64" fill="none" xmlns="http://www.w3.org/2000/svg">
<g clip-path="url(#clip0_6_2579)">
<path d="M32 0C14.3269 0 0 14.3269 0 32H64C64 14.3269 49.6731 0 32 0Z" fill="white" style="fill:white;fill-opacity:1;"/>
<path d="M32 42.6667L29.3333 41.3333L28 40V41.3333H26.6667V42.6667H32Z" fill="#4DAFE3" style="fill:#4DAFE3;fill:color(display-p3 0.3020 0.6863 0.8902);fill-opacity:1;"/>
<path d="M40 40L38.6666 38.6667L37.3333 41.3333H40V40Z" fill="#4DAFE3" style="fill:#4DAFE3;fill:color(display-p3 0.3020 0.6863 0.8902);fill-opacity:1;"/>
<path d="M40 32V34.6667L41.3333 32H40Z" fill="#4DAFE3" style="fill:#4DAFE3;fill:color(display-p3 0.3020 0.6863 0.8902);fill-opacity:1;"/>
<path d="M42.6667 34.6667H44L45.3334 32H44L42.6667 33.3333V34.6667Z" fill="#4DAFE3" style="fill:#4DAFE3;fill:color(display-p3 0.3020 0.6863 0.8902);fill-opacity:1;"/>
<path d="M25.3333 38.6667L24 40V41.3333H26.6667L25.3333 38.6667Z" fill="#4DAFE3" style="fill:#4DAFE3;fill:color(display-p3 0.3020 0.6863 0.8902);fill-opacity:1;"/>
<path d="M22.6667 32L24 34.6667V32H22.6667Z" fill="#4DAFE3" style="fill:#4DAFE3;fill:color(display-p3 0.3020 0.6863 0.8902);fill-opacity:1;"/>
<path d="M37.3333 41.3333H36V40L34.6667 41.3333L32 42.6667H37.3333V41.3333Z" fill="#4DAFE3" style="fill:#4DAFE3;fill:color(display-p3 0.3020 0.6863 0.8902);fill-opacity:1;"/>
<path d="M24 37.3333L21.3333 36L22.6667 38.6667L24 37.3333Z" fill="#4DAFE3" style="fill:#4DAFE3;fill:color(display-p3 0.3020 0.6863 0.8902);fill-opacity:1;"/>
<path d="M21.3333 34.6667V33.3333L20 32H18.6667L20 34.6667H21.3333Z" fill="#4DAFE3" style="fill:#4DAFE3;fill:color(display-p3 0.3020 0.6863 0.8902);fill-opacity:1;"/>
<path d="M41.3333 38.6667L42.6667 36L40 37.3333L41.3333 38.6667Z" fill="#4DAFE3" style="fill:#4DAFE3;fill:color(display-p3 0.3020 0.6863 0.8902);fill-opacity:1;"/>
<path d="M48 32L46.6667 34.6667L45.3334 36L44.0001 37.3333L46.6668 38.6666L45.3335 39.9999H42.6668L44.0001 41.3332H45.3334V43.9999L42.6667 42.6666H40V43.9999H37.3333V45.3332H26.6666V43.9999H23.9999V42.6666H21.3332L18.6665 43.9999V41.3332H19.9998L21.3331 39.9999H18.6664L17.3331 38.6666L19.9998 37.3333L18.6665 36L17.3332 34.6667L15.9999 32H0C0 49.6731 14.3269 64 32 64C49.6731 64 64 49.6731 64 32H48Z" fill="#4DAFE3" style="fill:#4DAFE3;fill:color(display-p3 0.3020 0.6863 0.8902);fill-opacity:1;"/>
<path d="M26.6667 34.6667H28V29.3333H29.3333V34.6667H30.6667V29.3333H33.3333V34.6667H34.6667V29.3333H36V34.6667H37.3333V28H34.6667L32 26.6667L29.3333 28H26.6667V34.6667Z" fill="#4DAFE3" style="fill:#4DAFE3;fill:color(display-p3 0.3020 0.6863 0.8902);fill-opacity:1;"/>
<path d="M25.3333 30.6667L24 31.3334V34.6667H25.3333V36L26.6666 37.3333L27.9999 40L29.3332 41.3333L31.9999 42.6666L34.6666 41.3333L35.9999 40L37.3332 37.3333L38.6665 36V34.6667H39.9998V31.3334L38.6665 30.6667V28L39.9998 29.3333V28L37.3331 25.3333H35.9998V24L37.3331 22.6667L38.6664 21.3334L35.9997 18.6667H33.333V16L31.9997 14.6667L30.6664 16V18.6667H27.9997L25.333 21.3334L26.6663 22.6667L27.9996 24V25.3333H26.6663L23.9996 28V29.3333L25.3329 28L25.3333 30.6667ZM34 20H35.3333L36.6666 21.3333L35.3333 22.6666H34V20ZM29.3333 20H30.6666V22.6667H29.3333L28 21.3334L29.3333 20ZM29.3333 28L32 26.6667L34.6667 28H37.3334V34.6667L34.6667 38.6667L32 40.6667L29.3333 38.6667L26.6666 34.6667V28H29.3333Z" fill="#CC9500" style="fill:#CC9500;fill:color(display-p3 0.8000 0.5843 0.0000);fill-opacity:1;"/>
<path d="M34.6667 34.6667H33.3333H30.6667H29.3333H28H26.6667L29.3333 38.6667L32 40.6667L34.6667 38.6667L37.3333 34.6667H36H34.6667Z" fill="#1E5B00" style="fill:#1E5B00;fill:color(display-p3 0.1176 0.3569 0.0000);fill-opacity:1;"/>
<path d="M30.6667 22.6667V20H29.3333L28 21.3333L29.3333 22.6667H30.6667Z" fill="white" style="fill:white;fill-opacity:1;"/>
<path d="M36.6667 21.3333L35.3333 20H34V22.6667H35.3333L36.6667 21.3333Z" fill="white" style="fill:white;fill-opacity:1;"/>
<path d="M18.6667 36L20 37.3333L17.3333 38.6666L18.6666 39.9999H21.3333L20 41.3332H18.6667V43.9999L21.3334 42.6666H22.6667V41.3333H24V40L25.3333 38.6667L26.6666 41.3334H27.9999V40.0001L26.6666 37.3334L25.3333 36.0001V34.6668H24L22.6667 32.0001L24 31.3334L25.3333 30.6667V28L24 29.3333L22.6667 30.6666V27.9999L24 26.6666L25.3333 25.3333V22.6666L22.6666 23.9999L21.3333 25.3332V30.6665L20 27.9998H18.6667V29.3331L20 31.9998L21.3333 33.3331V34.6664H20L18.6667 31.9997H16L17.3333 34.6664L18.6667 36ZM24 37.3333L22.6667 38.6666L21.3334 35.9999L24 37.3333Z" fill="#1E5B00" style="fill:#1E5B00;fill:color(display-p3 0.1176 0.3569 0.0000);fill-opacity:1;"/>
<path d="M38.6667 30.6667L40 31.3334L41.3333 32.0001L40 34.6668H38.6667V36.0001L37.3334 37.3334L36.0001 40.0001V41.3334H37.3334L38.6667 38.6667L40 40V41.3333H41.3333V42.6666H42.6666L45.3333 43.9999V41.3332H44L42.6667 39.9999H45.3334L46.6667 38.6666L44 37.3333L45.3333 36L46.6666 34.6667L47.9999 32H45.3332L43.9999 34.6667H42.6666V33.3334L43.9999 32.0001L45.3332 29.3334V28.0001H43.9999L42.6666 30.6668V25.3335L41.3333 24.0002L38.6666 22.6669V25.3336L39.9999 26.6669L41.3332 28.0002V30.6669L39.9999 29.3336L38.6666 28.0003L38.6667 30.6667ZM41.3334 38.6667L40.0001 37.3334L42.6668 36.0001L41.3334 38.6667Z" fill="#1E5B00" style="fill:#1E5B00;fill:color(display-p3 0.1176 0.3569 0.0000);fill-opacity:1;"/>
<path d="M40 41.3333H37.3333V42.6667H32H26.6667V41.3333H24H22.6667V42.6667H24V44H26.6667V45.3333H37.3333V44H40V42.6667H41.3333V41.3333H40Z" fill="white" style="fill:white;fill-opacity:1;"/>
<path d="M29.3333 29.3333H28V34.6666H29.3333V29.3333Z" fill="white" style="fill:white;fill-opacity:1;"/>
<path d="M36 29.3333H34.6667V34.6666H36V29.3333Z" fill="white" style="fill:white;fill-opacity:1;"/>
<path d="M33.3334 29.3333H30.6667V34.6666H33.3334V29.3333Z" fill="white" style="fill:white;fill-opacity:1;"/>
</g>
<defs>
<clipPath id="clip0_6_2579">
<rect width="64" height="64" fill="white" style="fill:white;fill-opacity:1;"/>
</clipPath>
</defs>
</svg>
