<svg width="64" height="64" viewBox="0 0 64 64" fill="none" xmlns="http://www.w3.org/2000/svg">
<g clip-path="url(#clip0_6_2563)">
<path d="M62.1719 21.3333H26.8066L28.033 33.5969L24.0935 41.1476L21.1562 42.6666H62.1717C63.3516 39.3295 63.9999 35.7411 63.9999 31.9999C63.9999 28.2587 63.3518 24.6705 62.1719 21.3333Z" fill="#2D25C5" style="fill:#2D25C5;fill:color(display-p3 0.1765 0.1451 0.7725);fill-opacity:1;"/>
<path d="M7.9065 41.1476L3.967 33.5969L5.1934 21.3333H1.8281C0.6482 24.6704 0 28.2588 0 32C0 35.7412 0.6482 39.3295 1.8281 42.6667H10.8436L7.9065 41.1476Z" fill="#2D25C5" style="fill:#2D25C5;fill:color(display-p3 0.1765 0.1451 0.7725);fill-opacity:1;"/>
<path d="M16 45.3333L10.8436 42.6666H1.82812C6.22192 55.0938 18.0681 63.9999 32 63.9999C45.9319 63.9999 57.7782 55.0938 62.1719 42.6666H21.1564L16 45.3333Z" fill="#F0263C" style="fill:#F0263C;fill:color(display-p3 0.9412 0.1490 0.2353);fill-opacity:1;"/>
<path d="M6.66665 20L5.33325 33.3333L7.42025 37.3333L10.6667 36H14.6667V32H9.33325V29.3333H14.6667V26.6666H10.6667V24H14.6667V21.3333H17.3333V24H21.3333V26.6666H17.3333V29.3333H22.6667V32H17.3333V36H21.3333L24.5797 37.3333L23.1111 40.1481L26.6667 33.3333L25.3333 20H6.66665Z" fill="#F0263C" style="fill:#F0263C;fill:color(display-p3 0.9412 0.1490 0.2353);fill-opacity:1;"/>
<path d="M3.96703 33.5969L7.90652 41.1476L10.8437 42.6666L16.0001 45.3333L21.1565 42.6666L24.0937 41.1476L28.0332 33.5969L26.8068 21.3333H62.1721C57.7782 8.9061 45.9319 0 32 0C18.0681 0 6.22183 8.9061 1.82812 21.3333H5.19342L3.96703 33.5969ZM23.1111 40.1481L16 43.7036L13.9259 42.6666L8.88882 40.1481L5.33333 33.3333L6.66663 20H25.3333L26.6666 33.3333L23.1111 40.1481Z" fill="white" style="fill:white;fill-opacity:1;"/>
<path d="M21.3333 36H17.3333H14.6667H10.6667L7.42025 37.3333L5.33325 33.3333L8.88885 40.1481L13.9259 42.6666L16 43.7037L23.1111 40.1481L24.5797 37.3333L21.3333 36Z" fill="#2D25C5" style="fill:#2D25C5;fill:color(display-p3 0.1765 0.1451 0.7725);fill-opacity:1;"/>
<path d="M17.3333 32H22.6667V29.3333H17.3333V26.6666H21.3333V24H17.3333V21.3333H14.6667V24H10.6667V26.6666H14.6667V29.3333H9.33325V32H14.6667V36H17.3333V32Z" fill="white" style="fill:white;fill-opacity:1;"/>
</g>
<defs>
<clipPath id="clip0_6_2563">
<rect width="64" height="64" fill="white" style="fill:white;fill-opacity:1;"/>
</clipPath>
</defs>
</svg>
