<svg width="64" height="64" viewBox="0 0 64 64" fill="none" xmlns="http://www.w3.org/2000/svg">
<g clip-path="url(#clip0_6_2545)">
<path d="M62.1719 21.3333H21.3333V14.6666C21.3333 14.6666 19.3019 13.3333 16 13.3333C12.6353 13.3333 10.6667 14.6666 10.6667 14.6666V21.3333H1.8281C0.6482 24.6704 0 28.2588 0 32C0 35.7412 0.6482 39.3295 1.8281 42.6667H62.1719C63.3518 39.3296 64 35.7412 64 32C64 28.2588 63.3518 24.6705 62.1719 21.3333ZM18.6667 14.6666L19.6667 15.6666L18.6667 16.6666L17.6667 15.6666L18.6667 14.6666ZM16 16.6666L17 17.6666L16 18.6666L15 17.6666L16 16.6666ZM13.3333 14.6666L14.3333 15.6666L13.3333 16.6666L12.3333 15.6666L13.3333 14.6666ZM16 27.9999C13.4657 27.9999 11.3486 26.2305 10.8057 23.8608L13.3333 21.3332L14.6666 22.6665L15.9999 19.9998L17.3332 22.6665L18.6665 21.3332L21.1941 23.8608C20.6512 26.2305 18.5343 27.9999 16 27.9999Z" fill="#2D25C5" style="fill:#2D25C5;fill:color(display-p3 0.1765 0.1451 0.7725);fill-opacity:1;"/>
<path d="M10.6667 14.6666C10.6667 14.6666 12.6353 13.3333 16 13.3333C19.302 13.3333 21.3333 14.6666 21.3333 14.6666V21.3333H62.1719C57.7782 8.9061 45.9319 0 32 0C18.0681 0 6.22183 8.9061 1.82812 21.3333H10.6667V14.6666Z" fill="white" style="fill:white;fill-opacity:1;"/>
<path d="M32 64C45.9319 64 57.7782 55.0939 62.1719 42.6667H1.82812C6.22192 55.0939 18.0681 64 32 64Z" fill="#F0263C" style="fill:#F0263C;fill:color(display-p3 0.9412 0.1490 0.2353);fill-opacity:1;"/>
<path d="M17.3333 22.6666L16 19.9999L14.6667 22.6666L13.3334 21.3333L10.8058 23.8609C11.3487 26.2306 13.4658 28 16.0001 28C18.5344 28 20.6515 26.2306 21.1944 23.8609L18.6668 21.3333L17.3333 22.6666Z" fill="white" style="fill:white;fill-opacity:1;"/>
<path d="M13.3334 14.6666L12.3334 15.6666L13.3334 16.6666L14.3334 15.6666L13.3334 14.6666Z" fill="#FFD400" style="fill:#FFD400;fill:color(display-p3 1.0000 0.8314 0.0000);fill-opacity:1;"/>
<path d="M16 16.6666L15 17.6666L16 18.6666L17 17.6666L16 16.6666Z" fill="#FFD400" style="fill:#FFD400;fill:color(display-p3 1.0000 0.8314 0.0000);fill-opacity:1;"/>
<path d="M18.6667 14.6666L17.6667 15.6666L18.6667 16.6666L19.6667 15.6666L18.6667 14.6666Z" fill="#FFD400" style="fill:#FFD400;fill:color(display-p3 1.0000 0.8314 0.0000);fill-opacity:1;"/>
</g>
<defs>
<clipPath id="clip0_6_2545">
<rect width="64" height="64" fill="white" style="fill:white;fill-opacity:1;"/>
</clipPath>
</defs>
</svg>
