<svg width="64" height="64" viewBox="0 0 64 64" fill="none" xmlns="http://www.w3.org/2000/svg">
<g clip-path="url(#clip0_6_3167)">
<path d="M32 64C49.6731 64 64 49.6731 64 32C64 14.3269 49.6731 0 32 0C14.3269 0 0 14.3269 0 32C0 49.6731 14.3269 64 32 64Z" fill="white" style="fill:white;fill-opacity:1;"/>
<path d="M0 32C0 49.6731 14.3269 64 32 64V0C14.3269 0 0 14.3269 0 32Z" fill="#FFD400" style="fill:#FFD400;fill:color(display-p3 1.0000 0.8314 0.0000);fill-opacity:1;"/>
<path d="M51.8081 29.1901L54.6232 32L56.5057 30.1165L54.8613 28.4721L55.804 27.5293L57.4482 29.1734L59.3333 27.2873L56.6805 24.6472L54.6667 26.6436L53.3333 25.3322L48 30L49.0745 31.6252L51.8081 29.1901Z" fill="#FFD400" style="fill:#FFD400;fill:color(display-p3 1.0000 0.8314 0.0000);fill-opacity:1;"/>
<path d="M45.8817 34.4694L45.3136 33.3333L44.8522 32.8718L42.0392 35.3725L43.3717 36.7052L45.8817 34.4694Z" fill="#FFD400" style="fill:#FFD400;fill:color(display-p3 1.0000 0.8314 0.0000);fill-opacity:1;"/>
<path d="M40 25.3333L38.839 26.4742V26.4741L38.6667 26.6436L36.6528 24.6472L34 27.2873L35.8851 29.1734L37.5293 27.5293L38.472 28.4721L36.8276 30.1165L38.7101 32L41.5252 29.1901L44.2332 31.6024L45.2518 30.0016L40 25.3333Z" fill="#C8C8C8" style="fill:#C8C8C8;fill:color(display-p3 0.7843 0.7843 0.7843);fill-opacity:1;"/>
<path d="M47.4246 34.4451L49.9617 36.7052L51.2942 35.3726L48.4602 32.8535L47.9804 33.3333L47.4246 34.4451Z" fill="#C8C8C8" style="fill:#C8C8C8;fill:color(display-p3 0.7843 0.7843 0.7843);fill-opacity:1;"/>
<path d="M44 25.3333H49.3334L50.6667 21.3333H49.3334L50.6667 17.3333H48V16H45.3334V17.3333H42.6667L44 21.3333H42.6667L44 25.3333Z" fill="#FFD400" style="fill:#FFD400;fill:color(display-p3 1.0000 0.8314 0.0000);fill-opacity:1;"/>
<path d="M38.839 26.4741L40 25.3322L37.3333 22.6667H36V24L36.6528 24.6472L38.6667 26.6436L38.839 26.4741Z" fill="#FFD400" style="fill:#FFD400;fill:color(display-p3 1.0000 0.8314 0.0000);fill-opacity:1;"/>
<path d="M54.6666 26.6436L56.6805 24.6472L57.3333 24V22.6667H56L53.3333 25.3322L54.6666 26.6436Z" fill="#C8C8C8" style="fill:#C8C8C8;fill:color(display-p3 0.7843 0.7843 0.7843);fill-opacity:1;"/>
<path d="M42.1888 38.1035C42.216 38.1538 42.2352 38.2085 42.2601 38.2602L42.6667 38.6667L44 37.3335L43.3717 36.7052L42.0392 35.3727L41.3333 34.6667L40 36L40.4041 36.4041C40.4572 36.4298 40.513 36.4508 40.5647 36.4787C41.2519 36.8499 41.8179 37.4162 42.1888 38.1035Z" fill="#C8C8C8" style="fill:#C8C8C8;fill:color(display-p3 0.7843 0.7843 0.7843);fill-opacity:1;"/>
<path d="M49.3333 37.3333L50.6665 38.6666L51.0839 38.2492C51.4773 37.4453 52.1258 36.7929 52.9305 36.4025L53.3333 35.9999L52 34.6666L51.2941 35.3725L49.9616 36.7051L49.3333 37.3333Z" fill="#FFD400" style="fill:#FFD400;fill:color(display-p3 1.0000 0.8314 0.0000);fill-opacity:1;"/>
<path d="M53.3333 42.6667V41.3334L52 40.1482V41.3334H47.3333V37.3159L50.7226 40.72C50.726 40.6982 50.7249 40.6751 50.7286 40.6534C50.7828 40.3382 50.8769 40.038 51.0001 39.7527C51.0107 39.7282 51.0175 39.7019 51.0286 39.6777C51.0673 39.5928 51.1173 39.5148 51.1617 39.4332C51.1653 39.4265 51.1702 39.4206 51.1739 39.4139L47.3332 36L47.3135 34.6667L47.9802 33.3334L48.46 32.8535L49.3135 32L49.0744 31.6252L47.9999 30L45.2517 30.0016L44.2331 31.6024L43.9802 32L44.8521 32.8718L45.3135 33.3333L45.9999 34.6666V35.9999L42.1714 39.433C42.2158 39.5146 42.2658 39.5926 42.3045 39.6775C42.3156 39.7017 42.333 39.7525 42.333 39.7525C42.4562 40.0378 42.5503 40.338 42.6045 40.6532C42.6048 40.6551 42.6047 40.6571 42.605 40.6591L42.6083 40.6574L45.9999 37.3158V41.3333H41.3332V40.1666L39.9999 41.3333V42.6666H45.9999V46.6666L45.3332 49.3333H47.9999L47.3332 46.6666V42.6666L53.3333 42.6667Z" fill="#F0263C" style="fill:#F0263C;fill:color(display-p3 0.9412 0.1490 0.2353);fill-opacity:1;"/>
<path d="M41.3333 43.3333V44H39.4477L38.6666 43.219L37.8855 44H35.9999V42.1143L36.781 41.3334L35.9999 40.5522V38.6666H37.8856L38.6665 39.4477L39.4474 38.6666H41.3331V41.3334H42.6664C42.6664 41.1031 42.6423 40.8788 42.6049 40.6591C42.6046 40.6572 42.6047 40.6553 42.6044 40.6533C42.5502 40.3381 42.4561 40.0379 42.3329 39.7526C42.3223 39.7281 42.3155 39.7018 42.3044 39.6776C42.2657 39.5927 42.2157 39.5147 42.1713 39.4331C41.4944 38.1864 40.185 37.3333 38.6664 37.3333C36.4573 37.3333 34.6664 39.1242 34.6664 41.3333C34.6664 43.5424 36.4573 45.3333 38.6664 45.3333C40.4073 45.3333 41.8842 44.2191 42.434 42.6665H41.3331L41.3333 43.3333Z" fill="#FFD400" style="fill:#FFD400;fill:color(display-p3 1.0000 0.8314 0.0000);fill-opacity:1;"/>
<path d="M54.6666 37.3333C53.1562 37.3333 51.8539 38.1779 51.1739 39.4137C51.1702 39.4204 51.1653 39.4264 51.1617 39.4331C51.1173 39.5147 51.0673 39.5927 51.0286 39.6776C51.0175 39.7018 51.0107 39.7281 51.0001 39.7526C50.8769 40.0379 50.7828 40.3381 50.7286 40.6533C50.7249 40.675 50.726 40.698 50.7226 40.7198C50.6909 40.9204 50.6666 41.1237 50.6666 41.3333H51.9999V38.6665H53.8856L54.6665 39.4476L55.4474 38.6665H57.3331V40.5522L56.552 41.3333L57.3331 42.1143V43.9999H55.4475L54.6664 43.2188L53.8853 43.9999H51.9997V42.6665H50.8988C51.4486 44.2191 52.9255 45.3333 54.6664 45.3333C56.8755 45.3333 58.6664 43.5424 58.6664 41.3333C58.6664 39.1242 56.8757 37.3333 54.6666 37.3333Z" fill="#C8C8C8" style="fill:#C8C8C8;fill:color(display-p3 0.7843 0.7843 0.7843);fill-opacity:1;"/>
<path d="M40 42.6667H37.3333V40H40V42.6667Z" fill="white" style="fill:white;fill-opacity:1;"/>
<path d="M40 40H37.3333V42.6667H40V40Z" fill="#FFD400" style="fill:#FFD400;fill:color(display-p3 1.0000 0.8314 0.0000);fill-opacity:1;"/>
<path d="M56 40H53.3333V42.6667H56V40Z" fill="#C8C8C8" style="fill:#C8C8C8;fill:color(display-p3 0.7843 0.7843 0.7843);fill-opacity:1;"/>
</g>
<defs>
<clipPath id="clip0_6_3167">
<rect width="64" height="64" fill="white" style="fill:white;fill-opacity:1;"/>
</clipPath>
</defs>
</svg>
